# Blender v2.80 (sub 75) OBJ File: ''
# www.blender.org
mtllib test.mtl
o Cone.002
v 1.002192 0.059596 0.060080
v 0.883153 0.059596 0.060080
v 0.883153 -0.059444 0.060080
v 1.002192 -0.059444 0.060080
v 0.883153 -0.059444 -0.058959
v 1.002192 -0.059444 -0.058959
v 1.002192 0.059596 -0.058959
v 0.883153 0.059596 -0.058959
v 0.000191 -0.010430 -0.000000
v 0.800029 -0.010430 -0.000000
v 0.800029 -0.010230 0.002035
v 0.000191 -0.010230 0.002034
v 0.800029 -0.009636 0.003991
v 0.000191 -0.009636 0.003991
v 0.810444 -0.008672 0.005795
v 0.000191 -0.008672 0.005794
v 0.810444 -0.007375 0.007375
v 0.000191 -0.007375 0.007375
v 0.810444 -0.005795 0.008672
v 0.000191 -0.005795 0.008672
v 0.810444 -0.003992 0.009636
v 0.000191 -0.003992 0.009636
v 0.810444 -0.002035 0.010230
v 0.000191 -0.002035 0.010230
v 0.810444 -0.000000 0.010430
v 0.000191 -0.000000 0.010430
v 0.810444 0.002035 0.010230
v 0.000191 0.002035 0.010230
v 0.810444 0.003991 0.009636
v 0.000191 0.003991 0.009636
v 0.800029 0.005795 0.008672
v 0.000191 0.005795 0.008672
v 0.800029 0.007375 0.007375
v 0.000191 0.007375 0.007375
v 0.800029 0.008672 0.005795
v 0.000191 0.008672 0.005795
v 0.873665 0.009636 0.003992
v 0.000191 0.009636 0.003992
v 0.884080 0.010230 0.002035
v 0.000191 0.010230 0.002035
v 0.884080 0.010430 0.000000
v 0.000191 0.010430 0.000000
v 0.884080 0.010230 -0.002035
v 0.000191 0.010230 -0.002035
v 0.884080 0.009636 -0.003991
v 0.000191 0.009636 -0.003991
v 0.884080 0.008672 -0.005795
v 0.000191 0.008672 -0.005795
v 0.884080 0.007375 -0.007375
v 0.000191 0.007375 -0.007375
v 0.884080 0.005795 -0.008672
v 0.000191 0.005795 -0.008672
v 0.884080 0.003992 -0.009636
v 0.000191 0.003992 -0.009636
v 0.884080 0.002035 -0.010230
v 0.000191 0.002035 -0.010230
v 0.884080 0.000000 -0.010430
v 0.000191 0.000000 -0.010430
v 0.884080 -0.002035 -0.010230
v 0.000191 -0.002035 -0.010230
v 0.884080 -0.003991 -0.009636
v 0.000191 -0.003991 -0.009636
v 0.884080 -0.005795 -0.008672
v 0.000191 -0.005795 -0.008672
v 0.884080 -0.007375 -0.007375
v 0.000191 -0.007375 -0.007375
v 0.884080 -0.008672 -0.005795
v 0.000191 -0.008672 -0.005795
v 0.803033 -0.009636 -0.003992
v 0.000191 -0.009636 -0.003992
v 0.800029 -0.010230 -0.002035
v 0.000191 -0.010230 -0.002035
vn 0.0000 -0.0000 1.0000
vn 0.0000 -1.0000 -0.0000
vn 1.0000 -0.0000 0.0000
vn 0.0000 0.0000 -1.0000
vn -1.0000 0.0000 0.0000
vn 0.0000 1.0000 0.0000
vn -0.0000 -0.9952 0.0978
vn -0.0000 -0.9952 0.0979
vn 0.0000 -0.9570 0.2901
vn -0.0000 -0.9570 0.2900
vn -0.0000 -0.8820 0.4713
vn -0.0000 -0.8819 0.4715
vn -0.0000 -0.7729 0.6345
vn -0.0000 -0.7731 0.6342
vn 0.0000 -0.6345 0.7729
vn 0.0000 -0.4715 0.8819
vn 0.0000 -0.2904 0.9569
vn 0.0000 -0.0978 0.9952
vn 0.0000 0.0978 0.9952
vn 0.0000 0.2906 0.9569
vn 0.0000 0.4713 0.8820
vn 0.0000 0.6345 0.7729
vn 0.0000 0.7729 0.6345
vn 0.0000 0.8819 0.4715
vn 0.0006 0.9569 0.2904
vn 0.0000 0.9570 0.2901
vn 0.0000 0.9952 0.0978
vn 0.0000 0.9952 -0.0978
vn 0.0000 0.9569 -0.2906
vn 0.0000 0.8820 -0.4713
vn 0.0000 0.7729 -0.6345
vn 0.0000 0.6345 -0.7729
vn 0.0000 0.4715 -0.8819
vn 0.0000 0.2904 -0.9569
vn 0.0000 0.0978 -0.9952
vn 0.0000 -0.0978 -0.9952
vn 0.0000 -0.2906 -0.9569
vn 0.0000 -0.4713 -0.8820
vn 0.0000 -0.6345 -0.7729
vn 0.0000 -0.7729 -0.6345
vn 0.0000 -0.8819 -0.4715
vn 0.8796 0.1163 0.4614
vn 0.3527 -0.4495 0.8207
vn 0.7030 -0.1440 0.6965
vn -0.0000 -0.9570 -0.2901
vn -0.0001 -0.9570 -0.2901
vn 0.0000 -0.9952 -0.0978
vn 0.0001 0.9570 0.2901
vn 0.2257 -0.9705 0.0849
vn 0.5754 -0.7908 0.2088
vn 0.1156 -0.9920 0.0507
vn 0.3197 -0.9461 0.0524
vn 0.1319 -0.9865 -0.0970
vn 0.1109 -0.9408 0.3203
vn 0.7756 -0.1027 0.6229
vn 0.7198 -0.2424 0.6505
vn 0.6447 -0.4000 0.6515
vn 0.5476 -0.5677 0.6147
vn 0.4308 -0.7301 0.5304
vn 0.3038 -0.8664 0.3963
vn 0.1828 -0.9579 0.2216
vn 0.0846 -0.9962 0.0225
vn 0.0384 -0.9945 -0.0977
vn 0.1018 0.6835 0.7228
vn 0.0869 0.4676 0.8797
vn 1.0000 -0.0003 0.0000
vn 0.1122 0.7026 0.7026
vn 1.0000 -0.0001 0.0000
vn 0.1819 -0.1168 0.9764
vn 0.1644 -0.3866 0.9075
vn 0.1949 -0.5529 0.8102
vn 0.2237 -0.6954 0.6830
vn -0.0003 -0.9569 -0.2903
usemtl Default_OBJ.006
s off
f 2//1 4//1 1//1
f 5//2 4//2 3//2
f 1//3 6//3 7//3
f 7//4 5//4 8//4
f 8//5 3//5 2//5
f 7//6 2//6 1//6
f 2//1 3//1 4//1
f 5//2 6//2 4//2
f 1//3 4//3 6//3
f 7//4 6//4 5//4
f 8//5 5//5 3//5
f 7//6 8//6 2//6
s 1
f 10//7 12//8 9//8
f 11//9 14//10 12//10
f 13//11 16//12 14//12
f 15//13 18//14 16//14
f 17//15 20//15 18//15
f 19//16 22//16 20//16
f 21//17 24//17 22//17
f 23//18 26//18 24//18
f 25//19 28//19 26//19
f 27//20 30//20 28//20
f 30//21 31//21 32//21
f 31//22 34//22 32//22
f 33//23 36//23 34//23
f 35//24 38//24 36//24
f 37//25 40//26 38//26
f 39//27 42//27 40//27
f 41//28 44//28 42//28
f 43//29 46//29 44//29
f 45//30 48//30 46//30
f 47//31 50//31 48//31
f 49//32 52//32 50//32
f 51//33 54//33 52//33
f 53//34 56//34 54//34
f 55//35 58//35 56//35
f 57//36 60//36 58//36
f 59//37 62//37 60//37
f 61//38 64//38 62//38
f 63//39 66//39 64//39
f 65//40 68//40 66//40
f 68//41 69//41 70//41
f 57//42 37//43 67//44
f 70//45 71//46 72//45
f 71//47 9//47 72//47
f 40//5 56//5 72//5
f 72//5 9//5 12//5
f 12//5 14//5 16//5
f 16//5 18//5 20//5
f 20//5 22//5 24//5
f 24//5 26//5 28//5
f 28//5 30//5 24//5
f 32//5 34//5 24//5
f 36//5 38//5 40//5
f 40//5 42//5 44//5
f 44//5 46//5 40//5
f 48//5 50//5 40//5
f 52//5 54//5 50//5
f 56//5 58//5 60//5
f 60//5 62//5 56//5
f 64//5 66//5 68//5
f 68//5 70//5 72//5
f 72//5 12//5 16//5
f 16//5 20//5 24//5
f 24//5 30//5 32//5
f 34//5 36//5 40//5
f 40//5 46//5 48//5
f 50//5 54//5 56//5
f 56//5 62//5 64//5
f 64//5 68//5 56//5
f 72//5 16//5 40//5
f 24//5 34//5 40//5
f 40//5 50//5 56//5
f 56//5 68//5 72//5
f 16//5 24//5 40//5
f 10//7 11//7 12//8
f 11//9 13//9 14//10
f 13//11 15//11 16//12
f 15//13 17//13 18//14
f 17//15 19//15 20//15
f 19//16 21//16 22//16
f 21//17 23//17 24//17
f 23//18 25//18 26//18
f 25//19 27//19 28//19
f 27//20 29//20 30//20
f 30//21 29//21 31//21
f 31//22 33//22 34//22
f 33//23 35//23 36//23
f 35//24 37//24 38//24
f 37//25 39//48 40//26
f 39//27 41//27 42//27
f 41//28 43//28 44//28
f 43//29 45//29 46//29
f 45//30 47//30 48//30
f 47//31 49//31 50//31
f 49//32 51//32 52//32
f 51//33 53//33 54//33
f 53//34 55//34 56//34
f 55//35 57//35 58//35
f 57//36 59//36 60//36
f 59//37 61//37 62//37
f 61//38 63//38 64//38
f 63//39 65//39 66//39
f 65//40 67//40 68//40
f 68//41 67//41 69//41
f 13//49 11//50 69//51
f 11//50 10//52 69//51
f 10//52 71//53 69//51
f 69//51 67//44 15//54
f 67//44 65//3 63//3
f 61//3 67//44 63//3
f 61//3 59//3 67//44
f 59//3 57//42 67//44
f 57//42 55//55 37//43
f 55//55 53//56 37//43
f 53//56 51//57 37//43
f 51//57 49//58 37//43
f 49//58 47//59 37//43
f 47//59 45//60 37//43
f 45//60 43//61 37//43
f 43//61 41//62 37//43
f 41//62 39//63 37//43
f 37//43 35//64 29//65
f 35//64 33//66 31//67
f 29//65 35//64 31//67
f 29//65 27//68 25//3
f 25//3 23//69 29//65
f 23//69 21//70 37//43
f 29//65 23//69 37//43
f 21//70 19//71 37//43
f 19//71 17//72 37//43
f 15//54 13//49 69//51
f 17//72 15//54 37//43
f 15//54 67//44 37//43
f 70//45 69//73 71//46
f 71//47 10//47 9//47
