# Blender v2.80 (sub 75) OBJ File: ''
# www.blender.org
mtllib test.mtl
o Cone.001
v 0.000191 -0.010430 -0.000000
v 0.800029 -0.010430 -0.000000
v 0.800029 -0.010230 0.002035
v 0.000191 -0.010230 0.002034
v 0.800029 -0.009636 0.003991
v 0.000191 -0.009636 0.003991
v 0.800029 -0.008672 0.005795
v 0.000191 -0.008672 0.005794
v 0.800029 -0.007375 0.007375
v 0.000191 -0.007375 0.007375
v 0.800029 -0.005795 0.008672
v 0.000191 -0.005795 0.008672
v 0.800029 -0.003992 0.009636
v 0.000191 -0.003992 0.009636
v 0.800029 -0.002035 0.010230
v 0.000191 -0.002035 0.010230
v 0.800029 -0.000000 0.010430
v 0.000191 -0.000000 0.010430
v 0.800029 0.002035 0.010230
v 0.000191 0.002035 0.010230
v 0.800029 0.003991 0.009636
v 0.000191 0.003991 0.009636
v 0.800029 0.005795 0.008672
v 0.000191 0.005795 0.008672
v 0.800029 0.007375 0.007375
v 0.000191 0.007375 0.007375
v 0.800029 0.008672 0.005795
v 0.000191 0.008672 0.005795
v 0.800029 0.009636 0.003992
v 0.000191 0.009636 0.003992
v 0.800029 0.010230 0.002035
v 0.000191 0.010230 0.002035
v 0.800029 0.010430 0.000000
v 0.000191 0.010430 0.000000
v 0.800029 0.010230 -0.002035
v 0.000191 0.010230 -0.002035
v 0.800029 0.009636 -0.003991
v 0.000191 0.009636 -0.003991
v 0.800029 0.008672 -0.005795
v 0.000191 0.008672 -0.005795
v 0.800029 0.007375 -0.007375
v 0.000191 0.007375 -0.007375
v 0.800029 0.005795 -0.008672
v 0.000191 0.005795 -0.008672
v 0.800029 0.003992 -0.009636
v 0.000191 0.003992 -0.009636
v 0.800029 0.002035 -0.010230
v 0.000191 0.002035 -0.010230
v 0.800029 0.000000 -0.010430
v 0.000191 0.000000 -0.010430
v 0.800029 -0.002035 -0.010230
v 0.000191 -0.002035 -0.010230
v 0.800029 -0.003991 -0.009636
v 0.000191 -0.003991 -0.009636
v 0.800029 -0.005795 -0.008672
v 0.000191 -0.005795 -0.008672
v 0.800029 -0.007375 -0.007375
v 0.000191 -0.007375 -0.007375
v 0.800029 -0.008672 -0.005795
v 0.000191 -0.008672 -0.005795
v 0.800029 -0.009636 -0.003992
v 0.000191 -0.009636 -0.003992
v 0.800029 -0.010230 -0.002035
v 0.000191 -0.010230 -0.002035
v 0.798512 -0.050400 -0.000000
v 1.000112 0.000000 0.000000
v 0.798512 -0.049431 0.009832
v 0.798512 -0.046564 0.019287
v 0.798512 -0.041906 0.028000
v 0.798512 -0.035638 0.035638
v 0.798512 -0.028001 0.041906
v 0.798512 -0.019287 0.046563
v 0.798512 -0.009833 0.049431
v 0.798512 -0.000000 0.050400
v 0.798512 0.009832 0.049431
v 0.798512 0.019287 0.046564
v 0.798512 0.028000 0.041906
v 0.798512 0.035638 0.035638
v 0.798512 0.041906 0.028001
v 0.798512 0.046563 0.019287
v 0.798512 0.049431 0.009833
v 0.798512 0.050400 0.000000
v 0.798512 0.049431 -0.009832
v 0.798512 0.046564 -0.019287
v 0.798512 0.041906 -0.028001
v 0.798512 0.035638 -0.035638
v 0.798512 0.028001 -0.041906
v 0.798512 0.019287 -0.046563
v 0.798512 0.009833 -0.049431
v 0.798512 0.000000 -0.050400
v 0.798512 -0.009832 -0.049431
v 0.798512 -0.019287 -0.046564
v 0.798512 -0.028001 -0.041906
v 0.798512 -0.035638 -0.035638
v 0.798512 -0.041906 -0.028001
v 0.798512 -0.046563 -0.019287
v 0.798512 -0.049431 -0.009833
vn -0.0000 -0.9952 0.0978
vn -0.0000 -0.9952 0.0979
vn 0.0000 -0.9569 0.2903
vn -0.0000 -0.9570 0.2901
vn -0.0000 -0.8820 0.4713
vn -0.0000 -0.8819 0.4715
vn -0.0000 -0.7729 0.6345
vn -0.0000 -0.7731 0.6342
vn 0.0000 -0.6345 0.7729
vn 0.0000 -0.4715 0.8819
vn 0.0000 -0.2904 0.9569
vn 0.0000 -0.0978 0.9952
vn 0.0000 0.0978 0.9952
vn 0.0000 0.2906 0.9569
vn 0.0000 0.4713 0.8820
vn 0.0000 0.6345 0.7729
vn 0.0000 0.7729 0.6345
vn 0.0000 0.8819 0.4715
vn 0.0000 0.9570 0.2900
vn 0.0000 0.9952 0.0978
vn 0.0000 0.9952 -0.0978
vn 0.0000 0.9569 -0.2906
vn 0.0000 0.8820 -0.4713
vn 0.0000 0.7729 -0.6345
vn 0.0000 0.6345 -0.7729
vn 0.0000 0.4715 -0.8819
vn 0.0000 0.2904 -0.9569
vn 0.0000 0.0978 -0.9952
vn 0.0000 -0.0978 -0.9952
vn 0.0000 -0.2906 -0.9569
vn 0.0000 -0.4713 -0.8820
vn 0.0000 -0.6345 -0.7729
vn 0.0000 -0.7729 -0.6345
vn 0.0000 -0.8819 -0.4715
vn 1.0000 0.0000 0.0000
vn 0.0000 -0.9570 -0.2900
vn 0.0000 -0.9952 -0.0978
vn -1.0000 0.0000 0.0000
vn 0.2414 -0.9657 0.0952
vn 0.2414 -0.9287 0.2816
vn 0.2414 -0.8558 0.4575
vn 0.2414 -0.7502 0.6156
vn 0.2414 -0.6157 0.7501
vn 0.2414 -0.4574 0.8559
vn 0.2414 -0.2817 0.9286
vn 0.2414 -0.0952 0.9657
vn 0.2414 0.0952 0.9657
vn 0.2414 0.2816 0.9287
vn 0.2414 0.4575 0.8558
vn 0.2414 0.6156 0.7502
vn 0.2414 0.7501 0.6157
vn 0.2414 0.8559 0.4574
vn 0.2414 0.9286 0.2817
vn 0.2414 0.9657 0.0952
vn 0.2414 0.9657 -0.0952
vn 0.2414 0.9287 -0.2816
vn 0.2414 0.8558 -0.4575
vn 0.2414 0.7501 -0.6157
vn 0.2414 0.6157 -0.7501
vn 0.2414 0.4574 -0.8559
vn 0.2414 0.2817 -0.9286
vn 0.2414 0.0952 -0.9657
vn 0.2414 -0.0952 -0.9657
vn 0.2414 -0.2816 -0.9287
vn 0.2414 -0.4575 -0.8558
vn 0.2414 -0.6157 -0.7501
vn 0.2414 -0.7501 -0.6157
vn 0.2414 -0.8559 -0.4574
vn 0.2414 -0.9286 -0.2817
vn 0.2414 -0.9657 -0.0952
vn -1.0000 -0.0001 0.0000
vn -1.0000 0.0001 0.0000
vn 1.0000 -0.0009 0.0000
vn 1.0000 0.0001 0.0000
vn 1.0000 0.0006 0.0000
vn 1.0000 -0.0001 0.0000
vn 1.0000 0.0009 0.0000
vn 1.0000 -0.0006 0.0000
usemtl Default_OBJ.004
s 1
f 2//1 4//2 1//2
f 3//3 6//4 4//4
f 5//5 8//6 6//6
f 7//7 10//8 8//8
f 9//9 12//9 10//9
f 11//10 14//10 12//10
f 13//11 16//11 14//11
f 15//12 18//12 16//12
f 17//13 20//13 18//13
f 19//14 22//14 20//14
f 21//15 24//15 22//15
f 23//16 26//16 24//16
f 25//17 28//17 26//17
f 27//18 30//18 28//18
f 29//19 32//19 30//19
f 31//20 34//20 32//20
f 33//21 36//21 34//21
f 35//22 38//22 36//22
f 37//23 40//23 38//23
f 39//24 42//24 40//24
f 41//25 44//25 42//25
f 43//26 46//26 44//26
f 45//27 48//27 46//27
f 47//28 50//28 48//28
f 49//29 52//29 50//29
f 51//30 54//30 52//30
f 53//31 56//31 54//31
f 55//32 58//32 56//32
f 57//33 60//33 58//33
f 59//34 62//34 60//34
f 37//35 21//35 5//35
f 61//36 64//36 62//36
f 63//37 1//37 64//37
f 32//38 48//38 64//38
f 65//39 66//39 67//39
f 67//40 66//40 68//40
f 68//41 66//41 69//41
f 69//42 66//42 70//42
f 70//43 66//43 71//43
f 71//44 66//44 72//44
f 72//45 66//45 73//45
f 73//46 66//46 74//46
f 74//47 66//47 75//47
f 75//48 66//48 76//48
f 76//49 66//49 77//49
f 77//50 66//50 78//50
f 78//51 66//51 79//51
f 79//52 66//52 80//52
f 80//53 66//53 81//53
f 81//54 66//54 82//54
f 82//55 66//55 83//55
f 83//56 66//56 84//56
f 84//57 66//57 85//57
f 85//58 66//58 86//58
f 86//59 66//59 87//59
f 87//60 66//60 88//60
f 88//61 66//61 89//61
f 89//62 66//62 90//62
f 90//63 66//63 91//63
f 91//64 66//64 92//64
f 92//65 66//65 93//65
f 93//66 66//66 94//66
f 94//67 66//67 95//67
f 95//68 66//68 96//68
f 96//69 66//69 97//69
f 97//70 66//70 65//70
f 81//38 89//38 97//38
f 64//38 1//38 4//38
f 4//38 6//38 8//38
f 8//38 10//38 12//38
f 12//38 14//38 16//38
f 16//38 18//38 20//38
f 20//38 22//38 16//38
f 24//38 26//38 16//38
f 28//38 30//38 32//38
f 32//38 34//38 36//38
f 36//38 38//38 32//38
f 40//38 42//38 32//38
f 44//38 46//38 42//38
f 48//38 50//38 52//38
f 52//38 54//38 48//38
f 56//38 58//38 60//38
f 60//38 62//38 64//38
f 64//38 4//38 8//38
f 8//38 12//38 16//38
f 16//38 22//38 24//38
f 26//38 28//38 32//38
f 32//38 38//38 40//38
f 42//38 46//38 48//38
f 48//38 54//38 56//38
f 56//38 60//38 48//38
f 64//38 8//38 32//38
f 16//38 26//38 32//38
f 32//38 42//38 48//38
f 48//38 60//38 64//38
f 8//38 16//38 32//38
f 97//38 65//71 67//38
f 67//38 68//38 69//38
f 69//38 70//38 73//38
f 71//38 72//38 73//38
f 73//38 74//38 75//38
f 75//38 76//38 77//38
f 77//38 78//38 81//38
f 79//38 80//38 81//38
f 81//38 82//72 83//38
f 83//38 84//38 85//38
f 85//38 86//38 83//38
f 87//38 88//38 89//38
f 89//38 90//38 91//38
f 91//38 92//38 93//38
f 93//38 94//38 91//38
f 95//38 96//38 97//38
f 97//38 67//38 69//38
f 70//38 71//38 73//38
f 73//38 75//38 77//38
f 78//38 79//38 81//38
f 81//38 83//38 86//38
f 86//38 87//38 81//38
f 89//38 91//38 94//38
f 94//38 95//38 89//38
f 97//38 69//38 81//38
f 73//38 77//38 81//38
f 81//38 87//38 89//38
f 89//38 95//38 97//38
f 69//38 73//38 81//38
f 2//1 3//1 4//2
f 3//3 5//3 6//4
f 5//5 7//5 8//6
f 7//7 9//7 10//8
f 9//9 11//9 12//9
f 11//10 13//10 14//10
f 13//11 15//11 16//11
f 15//12 17//12 18//12
f 17//13 19//13 20//13
f 19//14 21//14 22//14
f 21//15 23//15 24//15
f 23//16 25//16 26//16
f 25//17 27//17 28//17
f 27//18 29//18 30//18
f 29//19 31//19 32//19
f 31//20 33//20 34//20
f 33//21 35//21 36//21
f 35//22 37//22 38//22
f 37//23 39//23 40//23
f 39//24 41//24 42//24
f 41//25 43//25 44//25
f 43//26 45//26 46//26
f 45//27 47//27 48//27
f 47//28 49//28 50//28
f 49//29 51//29 52//29
f 51//30 53//30 54//30
f 53//31 55//31 56//31
f 55//32 57//32 58//32
f 57//33 59//33 60//33
f 59//34 61//34 62//34
f 5//35 3//73 2//74
f 2//74 63//75 61//76
f 61//76 59//35 57//35
f 57//35 55//35 53//35
f 53//35 51//74 49//35
f 49//35 47//35 45//35
f 45//35 43//35 41//35
f 41//35 39//35 37//35
f 37//35 35//77 33//76
f 33//76 31//78 29//74
f 29//74 27//35 25//35
f 25//35 23//35 21//35
f 21//35 19//76 17//35
f 17//35 15//35 13//35
f 13//35 11//35 9//35
f 9//35 7//35 5//35
f 5//35 2//74 61//76
f 61//76 57//35 5//35
f 57//35 53//35 5//35
f 53//35 49//35 45//35
f 45//35 41//35 53//35
f 41//35 37//35 53//35
f 37//35 33//76 29//74
f 29//74 25//35 37//35
f 25//35 21//35 37//35
f 21//35 17//35 13//35
f 13//35 9//35 21//35
f 9//35 5//35 21//35
f 5//35 53//35 37//35
f 61//36 63//36 64//36
f 63//37 2//37 1//37
